<svg version="1.1" id="Capa_1" xmlns="http://www.w3.org/2000/svg" xmlns:xlink="http://www.w3.org/1999/xlink" x="0px" y="0px" width="612px" height="612px" viewBox="0 0 612 612" style="enable-background:new 0 0 612 612;" xml:space="preserve">
    <g>
        <g>
            <path d="M194.644,13.909H55.72c-15.411,0-27.901,12.351-27.901,27.818V153h556.363V97.336c0-15.356-12.462-27.791-27.79-27.791
			H222.545V41.727C222.545,26.372,210.361,13.909,194.644,13.909z" />
            <path d="M0,208.859v361.219c0,15.467,12.212,28.013,27.874,28.013h556.225c15.411,0,27.901-12.49,27.901-28.041V208.859
			c0-15.495-12.24-28.041-27.901-28.041H27.874C12.49,180.818,0,193.309,0,208.859z" />
        </g>
    </g>
</svg>