<svg version="1.1" id="Capa_1" xmlns="http://www.w3.org/2000/svg" xmlns:xlink="http://www.w3.org/1999/xlink" x="0px" y="0px" width="87.381px" height="87.381px" viewBox="0 0 87.381 87.381" style="enable-background:new 0 0 87.381 87.381;" xml:space="preserve">
    <g>
        <g id="Open_Message">
            <g>
                <path d="M85.587,30.121c-0.01-0.175-0.021-0.35-0.053-0.522c-0.009-0.037-0.022-0.071-0.03-0.108
				c-0.201-0.896-0.713-1.726-1.523-2.29L45.831,0.673c-1.288-0.898-2.994-0.898-4.282,0L3.396,27.2
				c-1.074,0.748-1.643,1.957-1.625,3.18v53.21c0,2.097,1.687,3.791,3.77,3.791h76.303c2.08,0,3.768-1.694,3.768-3.791V30.35
				C85.61,30.271,85.591,30.198,85.587,30.121z M9.308,39.777l21.126,14.35L9.308,76.778V39.777z M60.018,43.324L44.009,54.197
				L27.361,42.892V30.793h32.657V43.324z M33.599,56.277l8.305,5.641c0.636,0.435,1.368,0.646,2.106,0.646
				c0.735,0,1.471-0.213,2.106-0.646l7.915-5.375l21.685,23.25H11.665L33.599,56.277z M57.193,54.395l20.881-14.183v36.568
				L57.193,54.395z M43.688,8.405l33.473,23.277l-13.373,9.083V28.896c0-1.048-0.846-1.898-1.886-1.898H25.477
				c-1.04,0-1.882,0.851-1.882,1.898v11.438l-13.062-8.872L43.688,8.405z" />
            </g>
        </g>
    </g>
</svg>